<?xml version="1.0" encoding="UTF-8"?>
<svg id="Layer_1" data-name="Layer 1" xmlns="http://www.w3.org/2000/svg" viewBox="0 0 702.26 333.02">
  <defs>
    <style>
      .cls-1 {
        stroke-width: 4px;
      }

      .cls-1, .cls-2, .cls-3, .cls-4, .cls-5 {
        stroke-miterlimit: 10;
      }

      .cls-1, .cls-2, .cls-3, .cls-5 {
        fill: none;
      }

      .cls-1, .cls-3, .cls-4, .cls-5 {
        stroke: #000;
      }

      .cls-2 {
        stroke: #ff97d7;
      }

      .cls-2, .cls-3 {
        stroke-width: 15px;
      }

      .cls-4 {
        fill: #ff97d7;
        stroke-width: 3px;
      }

      .cls-5 {
        stroke-width: 21px;
      }
    </style>
  </defs>
  <g>
    <path class="cls-4" d="M255.99,117.4c.16,1.68.24,2.52.39,4.21-4.07,4.03-7.49,7.32-10.31,9.85-2.82,2.53-5.63,4.85-8.44,6.96-2.81,2.11-5.15,3.66-7.03,4.65-1.88.99-3.53,1.58-4.93,1.75-3.35.42-6.24-.33-8.67-2.26-2.44-1.94-3.91-4.66-4.39-8.17-.56-4.04-.19-8.18,1.15-12.39,1.34-4.22,3.49-8.68,6.47-13.36,2.98-4.68,6.84-10,11.62-15.87,3.55-4.35,5.35-6.76,5.3-7.24-.03-.28-.18-.52-.44-.69-.26-.18-.54-.25-.83-.22-.91.1-3.55,2.11-7.83,6.07-4.28,3.96-9.66,9.73-15.98,17.27-7.14,8.51-13.42,17.67-19.63,26.9-.38.56-1.58,2.43-3.56,5.63-1.98,3.2-3.39,5.31-4.24,6.32-.85,1.01-1.64,1.58-2.36,1.71-1.27.22-2.56-.73-3.88-2.84-1.33-2.11-2.22-4.45-2.67-7.02-.28-1.57,0-3.36.86-5.37.86-2.01,2.84-5.71,6.03-11.06,3.19-5.35,5.87-9.84,8-13.48,2.13-3.64,4.43-8.02,6.94-13.07,1.75-3.51,3.06-6.3,3.87-8.36.81-2.05,1.11-3.81.91-5.26-.18-1.25-.7-1.82-1.57-1.69-1.84.26-5.01,2.81-9.42,7.67-4.41,4.86-9.83,11.97-15.54,21.21-6.36,10.3-11.92,20.97-17.32,31.97-1.81,4.09-3.09,6.87-3.88,8.31-.79,1.45-1.82,2.3-3.08,2.56-1.58.32-3.36-.87-5.36-3.56-2-2.69-3.2-4.95-3.59-6.79-.13-.6,0-1.32.41-2.15,4.56-8.29,8.41-15.28,11.42-20.97,3.01-5.7,5.69-11.04,8-16.05,2.31-5.01,3.96-9.07,4.89-12.2.93-3.13,1.26-5.51.98-7.16-.3-1.73-1.39-2.43-3.28-2.1-1.55.27-4.04,1.56-7.44,3.89-3.41,2.33-7.66,5.46-12.71,9.41-5.05,3.96-9.07,7.06-12.12,9.26-3.05,2.21-5.38,3.5-7.04,3.87-1.56.34-2.5-.22-2.83-1.7-.19-.84-.28-2.83-.28-5.99,0-3.16.21-5.47.68-6.83.61-1.79,2.77-4.49,6.38-8.01,3.61-3.52,5.67-5.3,6.1-5.39.39-.08.61.02.67.3.03.16-.11.44-.43.84-1.72,1.72-2.96,3.11-3.75,4.15-.79,1.04-1.2,2.09-1.23,3.13,7.88-6.24,15.17-11.16,21.78-14.78,6.61-3.62,11.32-5.63,14.06-6.1,1.37-.24,2.8.3,4.28,1.6,1.48,1.3,2.81,2.88,3.99,4.73,1.18,1.85,1.82,3.06,1.91,3.63.34,2.05.11,4.58-.68,7.59-.79,3.01-1.93,6.54-3.42,10.61-1.49,4.07-3.31,9.15-5.41,15.25,1.96-3.13,3.86-6.03,5.69-8.71,1.83-2.68,3.68-5.29,5.54-7.83,1.86-2.54,3.77-5.11,5.72-7.69,2.64-3.51,5.72-6.96,9.24-10.31,3.52-3.35,6.89-6.14,10.09-8.37,3.2-2.23,5.43-3.42,6.66-3.58,1.72-.23,3.35.36,4.89,1.74,1.54,1.39,2.42,2.98,2.65,4.76.15,1.18-.5,3.54-1.92,7.09-1.42,3.56-3.54,8.15-6.33,13.8-2.79,5.65-6.44,12.96-10.84,21.95,4.61-5.68,9.48-11.5,14.65-17.46,5.16-5.95,9.1-10.28,11.7-13.02,2.6-2.74,4.81-4.85,6.61-6.32,2.46-2.01,4.95-4.13,7.45-6.38,2.5-2.25,4.48-4.02,5.93-5.31,1.45-1.29,2.77-2.3,3.94-3.03,1.17-.73,2.27-1.14,3.3-1.23,1.28-.12,3,.96,5.15,3.23,2.15,2.27,3.24,3.76,3.3,4.45.07.85-.42,1.92-1.46,3.2-1.04,1.28-3.22,3.68-6.5,7.22-6.02,6.54-11.05,13.11-15.13,19.65-4.08,6.54-6.99,12.46-8.8,17.71-1.81,5.25-2.51,9.32-2.15,12.2.22,1.78.76,3.03,1.62,3.75.86.72,2.08.98,3.69.79,1.47-.17,2.8-.58,4.01-1.21,1.21-.63,2.53-1.48,3.97-2.54,1.44-1.06,2.82-2.13,4.11-3.03,1.76-1.23,3.63-2.5,5.39-3.85,1.76-1.35,3.13-2.4,4.12-3.17.98-.77,1.71-1.32,2.2-1.65Z"/>
    <path class="cls-4" d="M262.75,106.04c6.67-6.23,13.37-10.93,20.01-14.1,6.64-3.18,11.87-4.82,15.6-5.01,1.01-.05,1.96.26,2.85.93.9.67,1.61,1.47,2.16,2.38.54.92.83,1.6.85,2.05.03.73-.28,1.29-.93,1.67-.65.38-1.8.85-3.43,1.42.36.64.83,1.45,1.4,2.45.57.99,1.01,1.8,1.32,2.42.31.62.48,1.17.5,1.66.05.98-1.02,2.86-3.16,5.64-2.14,2.78-3.63,4.84-4.47,6.15-.84,1.31-1.21,2.89-1.11,4.72.17,3.02,1.82,4.43,4.97,4.27,3.24-.17,8.15-3.08,14.91-8.68.05,1.49.08,2.24.13,3.73-6.8,7.37-15.25,16.8-24.18,18.4-1.55.28-3.08-.33-3.9-1.32-.82-.99-1.3-2.5-1.44-4.54-.21-3.22.78-7.97,3.06-14.25-6.39,7.02-11.03,12.09-14.07,15.12-3.04,3.04-5.6,4.65-7.7,4.83-1.01.09-2.33-.58-3.97-1.99-1.65-1.41-3.17-3.29-4.57-5.64-1.4-2.35-2.23-4.84-2.49-7.48-.18-1.91-.12-3.52.18-4.84.3-1.32.99-2.71,2.09-4.16,1.09-1.45,2.88-3.4,5.37-5.82ZM296.23,96.97c-8.65,4.19-17.72,8.23-25.38,14.06-4.9,3.73-7.17,7.49-6.86,11.07.11,1.3.46,2.35,1.04,3.14.58.79,1.3,1.15,2.18,1.08.51-.04,1.38-.4,2.63-1.08,4.64-2.91,8.85-6.52,12.64-10.85,3.79-4.33,8.34-10.14,13.75-17.42Z"/>
    <path class="cls-4" d="M337.78,81.52c1.24-.02,1.86-.02,3.1-.03,2.51-3.9,4.82-6.66,6.9-8.28,2.08-1.62,4.46-2.43,7.14-2.42,2.67,0,4.01.53,4,1.55,0,.49-1.06,1.81-3.15,3.96-2.09,2.16-3.66,3.97-4.71,5.44,1.64.16,3.09.31,4.36.44,1.27.13,2.27.24,2.99.32-2.77,4.31-6.21,8.72-10.27,13.27-1.33-.08-2.45-.14-3.35-.2-.9-.06-1.82-.11-2.74-.16-.93-.05-2.06-.11-3.39-.18-2.52,3.58-4.61,6.79-6.27,9.62-1.67,2.83-2.92,5.42-3.78,7.76-.86,2.35-1.26,4.56-1.21,6.64.07,2.82,1.37,4.19,3.91,4.14,1.76-.03,4.04-.9,6.87-2.59,2.83-1.69,6.62-4.27,11.42-7.7,0,1.64,0,2.46,0,4.1-7.63,6.92-16.93,17.5-27.31,18.35-1.94.16-3.73-.6-5.04-1.99-1.31-1.39-2-3.2-2.08-5.44-.05-1.51.24-3.32.88-5.42.64-2.1,1.82-5.29,3.56-9.55-.64.51-1.24,1.01-1.81,1.5-.57.49-1.09.93-1.56,1.34-.48.4-.98.83-1.53,1.28-.54.45-1.08.91-1.62,1.38-.06-1.69-.09-2.53-.16-4.22,4.76-3.77,10.49-10.26,17.39-19.43-.71-.03-1.38-.04-2-.05-.62,0-1.35,0-2.21.02-2.8.07-4.89.29-6.26.66-.57.14-1.1.29-1.59.45-.49.16-.84.24-1.03.25-.19,0-.29-.11-.3-.36-.04-1.35.92-3.41,2.74-6.15,1.52-2.28,2.96-4.07,4.35-5.21,1.39-1.14,3.1-1.92,5.14-2.36,2.04-.43,4.91-.68,8.61-.73Z"/>
    <path class="cls-4" d="M374.74,81.7c1.24.03,1.86.04,3.1.07,2.65-3.81,5.05-6.49,7.19-8.03,2.14-1.54,4.55-2.27,7.22-2.17,2.67.1,3.99.67,3.94,1.69-.02.49-1.12,1.77-3.29,3.85-2.16,2.08-3.79,3.84-4.9,5.27,1.63.22,3.08.42,4.35.59,1.27.17,2.26.32,2.98.43-2.92,4.21-6.51,8.5-10.74,12.9-1.33-.12-2.44-.23-3.34-.32-.9-.09-1.81-.17-2.74-.26-.92-.09-2.05-.18-3.38-.3-2.65,3.49-4.84,6.62-6.61,9.39-1.77,2.77-3.11,5.31-4.05,7.62-.94,2.31-1.42,4.51-1.44,6.6-.03,2.82,1.22,4.24,3.76,4.28,1.76.03,4.07-.76,6.95-2.35,2.88-1.59,6.76-4.03,11.68-7.3-.06,1.64-.08,2.46-.14,4.1-7.87,6.64-17.54,16.89-27.93,17.39-1.94.09-3.71-.73-4.97-2.16-1.26-1.43-1.89-3.27-1.89-5.51,0-1.51.35-3.31,1.07-5.39.72-2.08,2.01-5.22,3.89-9.42-.66.49-1.28.97-1.86,1.43-.58.47-1.12.9-1.61,1.28-.49.39-1.01.8-1.57,1.22-.56.43-1.12.87-1.67,1.32,0-1.69,0-2.53,0-4.22,4.89-3.6,10.84-9.89,18.06-18.8-.71-.05-1.38-.09-1.99-.12-.62-.03-1.35-.05-2.21-.06-2.81-.03-4.9.12-6.28.44-.57.12-1.11.25-1.6.39-.5.14-.84.21-1.03.21-.19,0-.28-.12-.28-.37,0-1.35,1.04-3.38,2.95-6.05,1.6-2.23,3.1-3.96,4.53-5.05,1.43-1.09,3.16-1.81,5.22-2.17,2.05-.36,4.93-.51,8.63-.42Z"/>
    <path class="cls-4" d="M437.59,116.88c-.13,1.54-.2,2.31-.33,3.84-4.34,3.28-8.04,5.97-11.13,8.05-3.09,2.08-5.76,3.65-8.01,4.68-2.25,1.04-4.13,1.51-5.64,1.42-3.57-.22-5.24-2.19-5.03-5.94.17-3.02,1.48-6.45,3.97-10.29s6.03-8.32,10.68-13.4c-2.19.87-4.26,1.91-6.22,3.12-1.96,1.21-3.71,2.49-5.24,3.85-1.53,1.36-2.81,2.53-3.85,3.49-3.19,2.81-6.24,5.71-9.16,8.7s-4.85,4.95-5.86,5.84c-1,.9-1.94,1.33-2.81,1.3-3.58-.13-5.24-4.1-4.98-11.94.08-2.57.61-5.39,1.61-8.46.99-3.07,3.52-7.09,7.66-12.03,7.41-8.57,14.82-17.13,22.86-25.1,6.45-6.4,11.88-11.18,16.18-14.36,4.29-3.18,7.17-4.66,8.53-4.45,1.71.25,3.09.67,4.11,1.21,1.02.54,1.51,1.1,1.46,1.66-.09,1.02-1.09,2.62-2.98,4.81-1.89,2.19-5.1,5.65-9.57,10.24-4.77,4.9-8.19,8.39-10.16,10.4-1.97,2.01-4.9,4.86-8.74,8.57-3.84,3.71-7.3,7.04-10.41,9.96-3.11,2.93-6.62,6.1-10.51,9.53-.12,2.94-.18,4.4-.31,7.34,6.47-5.82,12.18-10.5,17.01-14.11,4.84-3.6,8.96-6.27,12.33-8.02,3.36-1.75,5.82-2.56,7.34-2.44,1.43.11,2.7.94,3.82,2.48,1.12,1.54,1.63,2.78,1.56,3.72-.03.41-.31.9-.83,1.47-3.68,3.22-6.59,5.92-8.75,8.08-2.16,2.15-3.83,4.11-5.03,5.84-1.2,1.74-1.83,3.26-1.92,4.56-.13,1.91.85,2.94,2.93,3.09,2.22.16,7.31-2.13,15.43-6.72Z"/>
    <path class="cls-4" d="M470.93,120.26c-.21,1.78-.31,2.66-.52,4.44-5.08,4.54-9.65,7.9-13.77,10.07-4.12,2.17-7.5,3.14-10.19,2.88-3.74-.36-6.36-2.35-7.89-6.01-1.53-3.66-2.14-7.56-1.79-11.71.13-1.59.45-3.09.94-4.5.5-1.41,1.04-2.56,1.64-3.45.6-.89,1.68-2.27,3.27-4.14,7.47-8.39,14.14-12.26,19.75-11.66,2.9.31,4.24,1.43,4.03,3.33-.14,1.3-1.31,3.22-3.47,5.78-2.16,2.56-4.02,4.35-5.6,5.38-4.43,2.99-7.3,5.11-8.66,6.34-1.36,1.22-2.12,2.69-2.28,4.4-.14,1.46.37,2.74,1.53,3.84,1.15,1.09,2.72,1.74,4.7,1.94,2.17.22,4.62-.24,7.38-1.35,2.76-1.12,6.39-2.99,10.93-5.57ZM469.27,92.51c-1.19-.14-2.28-.65-3.27-1.54-.99-.89-1.42-1.92-1.3-3.1.19-1.79,1.42-3.67,3.68-5.63,2.27-1.97,4.5-2.82,6.67-2.57,1.45.17,2.61.69,3.48,1.56.87.87,1.22,2.01,1.05,3.43-.21,1.74-1.43,3.55-3.65,5.42-2.21,1.87-4.43,2.68-6.67,2.43Z"/>
    <path class="cls-4" d="M479.81,110.3c7.83-4.69,15.38-7.89,22.55-9.6,7.17-1.72,12.64-2.23,16.35-1.63,1,.16,1.86.67,2.6,1.51.74.85,1.28,1.77,1.62,2.78.34,1.01.47,1.73.4,2.18-.12.72-.54,1.2-1.26,1.44-.72.23-1.94.45-3.67.67.22.7.51,1.59.86,2.68.35,1.09.62,1.97.79,2.64.18.67.23,1.25.15,1.73-.16.97-1.6,2.58-4.28,4.85-2.69,2.27-4.57,3.97-5.67,5.08-1.1,1.11-1.79,2.57-2.07,4.39-.47,2.99.86,4.72,3.98,5.22,3.21.52,8.64-1.31,16.45-5.36-.26,1.47-.39,2.21-.65,3.68-8.22,5.78-18.47,13.23-27.57,12.92-1.58-.05-2.95-.97-3.55-2.11-.6-1.14-.75-2.72-.46-4.74.47-3.19,2.43-7.63,5.98-13.29-7.73,5.53-13.33,9.51-16.95,11.84-3.62,2.34-6.45,3.38-8.55,3.11-1-.13-2.16-1.05-3.47-2.78-1.32-1.72-2.42-3.88-3.3-6.47-.88-2.59-1.17-5.2-.87-7.84.22-1.91.62-3.47,1.18-4.7.57-1.23,1.54-2.44,2.91-3.63,1.37-1.19,3.53-2.72,6.47-4.57ZM514.51,108.44c-9.36,2.28-19.09,4.33-27.81,8.43-5.58,2.62-8.58,5.83-9.03,9.39-.16,1.3-.04,2.39.36,3.28.4.89,1.04,1.4,1.91,1.51.5.06,1.44-.1,2.8-.5,5.16-1.88,10.03-4.53,14.65-7.96,4.61-3.44,10.29-8.17,17.13-14.15Z"/>
    <path class="cls-4" d="M527.44,130.28c.1-.58.15-.87.25-1.45,9.68-6.13,19.42-12.16,29.12-18.26,2.02-4.71,5.04-6.67,9.01-5.84.99.21,2.01.67,3.04,1.39.07.49.11.74.18,1.23-.29.44-.53,1.1-.71,1.98-.16.76-.12,2.24.13,4.44.24,2.2.4,4.04.47,5.52.07,1.48-.08,3.09-.46,4.85-.57,2.63-1.81,5.01-3.7,7.13-1.9,2.12-4.39,4.01-7.46,5.69-3.07,1.68-6.89,3.27-11.45,4.78,1.59.56,2.87.94,3.82,1.13,1.87.37,3.96.37,6.3,0,2.33-.37,4.77-1.01,7.33-1.9s5.58-2.11,9.09-3.63c-.36,1.6-.53,2.4-.89,4-6.95,3.69-12.94,6.37-18.04,8.01-5.1,1.64-9.27,2.16-12.57,1.52-4.24-.82-7.87-3.15-10.93-7.02-1.79-2.31-2.8-4.4-3.01-6.26-.21-1.86-.06-4.3.47-7.32ZM555.03,125.95c.21-3.61.31-5.41.51-9.02-3.46,2.22-10.73,6.36-21.55,12.65,2.67,1.03,4.43,2.08,5.27,3.15.84,1.07,1.95,3.05,3.29,5.92,3.32-.52,6.02-1.58,8.08-3.19,2.06-1.61,3.44-4.09,4.12-7.45.08-.4.14-.76.18-1.09.04-.32.07-.65.09-.98Z"/>
    <path class="cls-4" d="M250.1,206.85c-1.27-1.75-3.05-3.26-5.35-4.52-2.31-1.26-4.85-2.18-7.64-2.77-2.79-.59-5.67-.91-8.64-.97-8.82-.08-17.27-1.55-25.46-4.43-.7-.22-1.5-.8-2.4-1.73-.9-.93-1.43-1.88-1.59-2.85-.57-3.55-.5-7.21.22-10.98.73-3.77,1.95-6.83,3.68-9.16,2.76-3.85,8.31-7.65,16.51-11.35,8.64-3.89,19.38-6.38,28.73-7.26,6.42-.6,11.54-.69,15.15-.12,3.61.58,5.49,1.82,5.65,3.69.26,3.05,0,5.45-.78,7.19-.77,1.75-1.65,2.94-2.64,3.58-.99.64-2.78,1.61-5.28,2.72-2.64,1.18-5.03,2.33-6.98,3.51s-3.6,2.3-4.95,3.35-2.2,1.59-2.55,1.63c-.44.05-.68-.09-.71-.41-.08-.69.59-1.82,2-3.39,1.41-1.57,3.25-2.99,5.4-4.29,2.3-1.39,3.46-2.29,3.43-2.62-.05-.53-1.43-.66-4.14-.39-8.21.84-15.71,2.39-22.48,4.6-6.77,2.21-11.97,4.73-15.63,7.48-3.66,2.75-5.29,5.27-4.95,7.53.21,1.41,1.18,2.29,2.89,2.63,1.71.35,5.45.79,11.18,1.42,5.73.62,10.89,1.6,15.46,2.84,6.53,1.78,11.47,3.89,14.75,6.29,3.28,2.41,5.08,5.31,5.41,8.68.23,2.31-.12,4.7-1.04,7.15-.92,2.45-2.39,4.77-4.4,6.95-2.01,2.19-4.38,4.12-7.09,5.66-2.3,1.31-5.3,2.62-8.89,3.97-3.59,1.36-7.51,2.59-11.75,3.69-4.24,1.11-8.31,1.97-12.22,2.57-7.2,1.11-13.09,1.42-17.7.85-4.61-.57-7.17-2.17-7.66-4.86-.22-1.2.18-3.22,1.23-6.04,1.04-2.82,2.54-4.92,4.42-6.09,1.62-1.01,3.36-1.68,5.02-2.06,1.66-.38,2.54-.33,2.61.16.02.12-.02.25-.13.39-.11.14-.24.27-.39.37-.16.11-.31.22-.46.32-.79.46-1.43.83-1.92,1.09-.49.27-.88.52-1.17.75-.28.23-.4.51-.34.83.14.85,4.53.5,13.2-.84,7.53-1.17,13.67-2.29,18.43-3.47,4.76-1.17,8.9-2.66,12.45-4.48,3.54-1.82,6.71-4.11,9.5-6.88Z"/>
    <path class="cls-4" d="M288.71,170.02c1.14-.07,1.71-.11,2.84-.18,2.1-4.01,4.07-6.88,5.9-8.59,1.82-1.71,3.97-2.64,6.43-2.75,2.45-.12,3.7.34,3.75,1.36.02.49-.88,1.86-2.68,4.11-1.81,2.25-3.15,4.14-4.04,5.66,1.51.09,2.85.16,4.02.23,1.17.07,2.09.13,2.76.18-2.32,4.44-5.24,9.01-8.73,13.74-1.22-.01-2.25-.03-3.08-.04-.83-.01-1.67-.03-2.52-.03-.85,0-1.89-.02-3.11-.02-2.12,3.69-3.86,6.99-5.23,9.89-1.38,2.9-2.39,5.54-3.05,7.92-.66,2.38-.91,4.61-.75,6.69.21,2.81,1.48,4.12,3.8,3.96,1.6-.11,3.64-1.09,6.14-2.9,2.49-1.82,5.82-4.57,10.04-8.23.09,1.64.13,2.46.22,4.1-6.43,7.07-14.39,18.23-23.97,19.59-1.75.25-3.44-.43-4.71-1.76-1.27-1.32-2.01-3.1-2.2-5.34-.13-1.5.04-3.32.51-5.45.47-2.13,1.38-5.36,2.73-9.7-.56.54-1.08,1.06-1.57,1.58-.49.51-.95.98-1.36,1.41-.41.42-.86.87-1.33,1.35-.47.47-.94.95-1.41,1.45-.15-1.68-.23-2.52-.38-4.21,4.15-3.98,9.04-10.72,14.87-20.18-.66,0-1.27.02-1.83.04-.57.02-1.24.06-2.02.12-2.57.2-4.47.51-5.7.94-.51.17-.99.34-1.43.52-.44.18-.75.28-.93.29-.17.01-.27-.1-.29-.34-.11-1.34.66-3.45,2.17-6.26,1.27-2.35,2.49-4.19,3.7-5.39,1.21-1.2,2.74-2.06,4.58-2.59,1.84-.52,4.47-.9,7.86-1.12Z"/>
    <path class="cls-4" d="M342.25,199.7c.02,1.64.02,2.46.04,4.1-2.78,2.48-5,4.14-6.68,4.99-1.68.84-4.1,1.22-7.27,1.13-5.34,6.42-9.99,9.73-14.13,9.89-2.34.09-4.51-.57-6.5-1.98-2-1.42-3.65-3.4-4.94-5.94-1.3-2.55-2.04-5.43-2.21-8.65-.14-2.61.61-5.55,2.27-8.83,1.66-3.27,3.89-6.36,6.7-9.24,2.81-2.88,5.87-5.23,9.18-7.04,3.31-1.81,6.42-2.74,9.32-2.81,2.06-.05,3.69.21,4.88.78,1.19.57,1.8,1.39,1.82,2.45.01.82-.47,1.76-1.45,2.84,1.66.3,2.8.82,3.42,1.57.62.75.94,2.12.97,4.12.03,1.96-.42,4.44-1.34,7.43-.92,2.99-2.19,5.81-3.8,8.46.47.43.7.65,1.17,1.08.38,0,.57-.01.96-.02.72-.01,1.43-.2,2.13-.56.7-.36,1.32-.73,1.87-1.13.55-.39,1.75-1.28,3.62-2.64ZM328.67,183.82c-3.56,2.13-6.58,4.06-9.07,5.8-2.49,1.74-4.58,3.49-6.28,5.25-1.69,1.76-2.8,3.52-3.32,5.26-.87,4.61-1.28,7.11-1.26,7.47.12,2.69,2.12,3.94,6.01,3.79,1.81-.07,4.79-1.7,8.98-4.84-.78-1.9-1.2-3.72-1.25-5.48-.08-2.57.39-5.21,1.44-7.91,1.04-2.7,2.62-5.82,4.75-9.34Z"/>
    <path class="cls-4" d="M390.44,200.61c-.07,1.64-.1,2.46-.17,4.1-4.99,5.14-9.07,9.06-12.34,11.72-3.27,2.66-5.95,3.98-8.08,3.93-2.05-.04-3.89-.67-5.52-1.87-1.64-1.21-3.11-2.86-4.41-4.95-1.31-2.09-2.86-5-4.67-8.73-2.18,2.56-4.13,4.96-5.85,7.19-1.73,2.23-2.91,3.71-3.58,4.45-.67.74-1.27,1.11-1.82,1.11-1.13,0-1.96-.69-2.47-2.09-.52-1.4-.8-3.45-.83-6.15-.04-3.67.37-7.22,1.26-10.64.89-3.42,2.19-6.75,3.92-9.98,1.73-3.23,3.98-6.72,6.76-10.45s5.93-7.62,9.48-11.66c4.89-5.58,9.18-10.1,12.81-13.58,3.63-3.48,6.82-6.08,9.52-7.81,2.71-1.73,4.96-2.55,6.72-2.48,2.18.09,3.23,1.01,3.15,2.77-.07,1.51-4.35,6.75-12.52,15.86-11.37,12.67-22.93,25.19-34.29,37.88,0,2.11.01,3.16.02,5.27,7.62-7.61,15.21-15.33,23.77-21.9,6.12-4.69,10.93-6.94,14.26-6.82,1.36.05,2.38.83,3.07,2.35.69,1.52.99,3.26.91,5.21-.16,4-2.13,7.62-5.86,10.9-3.73,3.28-9.37,7.01-16.83,11.3,1.24,1.86,2.34,3.22,3.29,4.07.95.86,2.17,1.3,3.65,1.34,1.31.03,2.73-.36,4.28-1.17,1.55-.81,3.14-1.84,4.77-3.1,1.63-1.25,4.16-3.29,7.61-6.08ZM365.09,203.01c1.63-1,3.67-2.54,6.14-4.63,2.46-2.09,4.59-4.26,6.38-6.52,1.79-2.26,2.72-4.16,2.76-5.71.02-.65-.27-.99-.88-1.01-1.65-.05-4.53,1.36-8.59,4.25-4.06,2.9-8,6.66-11.79,11.28,1.62.01,3.62.79,5.98,2.34Z"/>
    <path class="cls-4" d="M431.2,203.09c-.14,1.63-.21,2.45-.35,4.09-3.01,2.2-5.38,3.65-7.13,4.33-1.75.68-4.2.82-7.35.43-5.93,5.88-10.88,8.73-15.02,8.5-2.34-.13-4.43-.99-6.29-2.59-1.85-1.6-3.31-3.73-4.36-6.39-1.05-2.66-1.52-5.6-1.38-8.82.11-2.61,1.13-5.47,3.1-8.57,1.97-3.1,4.48-5.96,7.55-8.56,3.07-2.6,6.34-4.65,9.81-6.13,3.47-1.48,6.66-2.12,9.55-1.91,2.06.15,3.66.56,4.79,1.24,1.14.68,1.66,1.55,1.58,2.61-.06.81-.64,1.71-1.72,2.69,1.63.45,2.71,1.08,3.26,1.88.55.8.74,2.2.58,4.19-.16,1.95-.85,4.38-2.05,7.27-1.2,2.89-2.73,5.58-4.59,8.06.43.47.64.71,1.06,1.19.38.03.57.04.95.07.72.06,1.45-.06,2.17-.35.73-.29,1.38-.6,1.97-.95.58-.34,1.87-1.11,3.86-2.29ZM419.18,185.99c-3.75,1.78-6.94,3.42-9.58,4.91-2.65,1.49-4.9,3.04-6.75,4.63-1.85,1.59-3.12,3.24-3.8,4.92-1.3,4.51-1.95,6.95-1.97,7.32-.13,2.69,1.74,4.13,5.62,4.34,1.81.1,4.93-1.23,9.41-3.97-.59-1.96-.84-3.82-.72-5.57.17-2.57.89-5.15,2.18-7.74,1.29-2.59,3.16-5.55,5.62-8.85Z"/>
    <path class="cls-4" d="M430.66,204.89c.05-.59.08-.88.13-1.46,8.34-7.07,16.81-13.98,25.21-20.97,1.51-4.89,4.12-7.12,7.81-6.69.92.11,1.88.47,2.87,1.08.1.48.15.72.25,1.2-.23.47-.4,1.14-.51,2.03-.09.77.05,2.24.43,4.4.38,2.16.65,3.98.82,5.44.17,1.46.15,3.08-.08,4.86-.33,2.67-1.29,5.16-2.87,7.45-1.58,2.3-3.71,4.42-6.39,6.39-2.68,1.97-6.04,3.92-10.08,5.88,1.49.4,2.68.65,3.56.75,1.72.19,3.63-.02,5.73-.62,2.09-.6,4.27-1.47,6.53-2.61,2.26-1.14,4.93-2.65,8.02-4.51-.21,1.63-.32,2.44-.53,4.07-6.07,4.35-11.33,7.62-15.85,9.75-4.52,2.13-8.28,3.06-11.32,2.74-3.92-.4-7.38-2.37-10.44-5.93-1.79-2.13-2.86-4.11-3.2-5.94-.33-1.83-.37-4.27-.11-7.32ZM455.47,197.92c-.07-3.61-.1-5.41-.18-9.01-3,2.55-9.33,7.37-18.72,14.67,2.51.76,4.18,1.64,5.03,2.63.85.98,1.99,2.84,3.42,5.57,2.99-.84,5.36-2.16,7.12-3.96,1.76-1.8,2.84-4.4,3.22-7.81.05-.4.08-.77.09-1.1s.02-.66.01-.98Z"/>
    <path class="cls-4" d="M480.78,197.75c7.29-4.68,14.31-7.86,20.94-9.58,6.63-1.71,11.68-2.24,15.08-1.64.91.16,1.7.66,2.36,1.5.66.84,1.13,1.77,1.42,2.77.29,1.01.39,1.73.31,2.17-.13.72-.53,1.2-1.19,1.43-.67.23-1.8.46-3.39.67.19.7.43,1.59.73,2.68.3,1.09.51,1.97.66,2.64.15.67.18,1.24.09,1.73-.17.96-1.53,2.58-4.06,4.85-2.53,2.27-4.3,3.97-5.33,5.07-1.04,1.11-1.71,2.57-2.01,4.38-.5,2.98.67,4.71,3.52,5.2,2.93.51,7.96-1.32,15.24-5.39-.28,1.47-.42,2.2-.69,3.67-7.54,5.68-17.18,13.23-25.62,12.95-1.42-.05-2.68-.96-3.2-2.1-.52-1.14-.62-2.71-.3-4.73.51-3.18,2.42-7.62,5.81-13.27-7.23,5.52-12.46,9.5-15.83,11.83-3.37,2.33-5.99,3.37-7.9,3.11-.91-.13-1.95-1.05-3.12-2.78-1.17-1.72-2.12-3.88-2.87-6.47-.75-2.59-.96-5.2-.62-7.83.25-1.9.64-3.47,1.19-4.69.55-1.23,1.46-2.43,2.75-3.62,1.29-1.19,3.3-2.71,6.04-4.56ZM512.7,195.88c-12.02,2.86-20.55,5.76-25.75,8.43-5.2,2.67-8.01,5.81-8.5,9.37-.18,1.29-.09,2.39.25,3.28.35.89.92,1.4,1.72,1.51.46.07,1.32-.1,2.58-.5,4.77-1.87,9.31-4.52,13.62-7.95,4.32-3.43,9.65-8.16,16.08-14.14Z"/>
  </g>
  <g>
    <g>
      <polygon class="cls-3" points="151.2 214.74 124.08 212.97 107.25 234.31 100.56 207.97 75.07 198.56 98.04 184.05 99.12 156.9 120.01 174.27 146.17 166.9 136.11 192.14 151.2 214.74"/>
      <polygon class="cls-2" points="144.9 211.58 122.27 210.1 108.22 227.91 102.63 205.93 81.36 198.07 100.54 185.96 101.43 163.3 118.88 177.8 140.71 171.65 132.31 192.71 144.9 211.58"/>
    </g>
    <polygon class="cls-1" points="133.99 206.09 119.13 205.12 109.91 216.81 106.24 202.38 92.27 197.22 104.86 189.27 105.45 174.39 116.9 183.91 131.23 179.87 125.72 193.71 133.99 206.09"/>
  </g>
  <g>
    <g>
      <polygon class="cls-3" points="551.07 176.47 578.18 178.23 595.01 156.9 601.71 183.24 627.2 192.65 604.22 207.15 603.14 234.31 582.25 216.94 556.09 224.3 566.15 199.06 551.07 176.47"/>
      <polygon class="cls-2" points="557.36 179.63 579.99 181.11 594.04 163.3 599.63 185.28 620.9 193.14 601.73 205.25 600.83 227.91 583.39 213.41 561.55 219.56 569.95 198.49 557.36 179.63"/>
    </g>
    <polygon class="cls-1" points="568.27 185.12 583.13 186.09 592.35 174.39 596.02 188.83 609.99 193.98 597.4 201.93 596.81 216.81 585.36 207.29 571.03 211.33 576.54 197.5 568.27 185.12"/>
  </g>
  <g>
    <ellipse class="cls-5" cx="351.13" cy="166.51" rx="340.63" ry="156.01"/>
    <ellipse class="cls-2" cx="351.13" cy="166.51" rx="340.63" ry="156.01"/>
  </g>
</svg>